<svg xmlns="http://www.w3.org/2000/svg" viewBox="0 0 70 70">
  <path opacity="0.25" d="M 36.4408 14.7697 L 41.59 25.3653 C 41.59 25.5633 41.7881 25.5633 41.8871 25.6624 L 53.4729 27.2467 C 53.7699 27.2467 53.968 27.7419 53.7699 28.0389 L 45.3529 36.1589 C 45.1549 36.3569 45.1549 36.4559 45.1549 36.654 L 47.1353 48.2398 C 47.1353 48.5368 46.8383 48.9329 46.4422 48.7349 L 36.0447 43.1896 C 35.8466 43.1896 35.7476 43.1896 35.5496 43.1896 L 25.1521 48.7349 C 24.855 48.9329 24.3599 48.5368 24.4589 48.2398 L 26.4394 36.654 C 26.4394 36.4559 26.4394 36.3569 26.2413 36.1589 L 17.8243 28.138 C 17.5273 27.8409 17.6263 27.3458 18.1214 27.3458 L 29.7072 25.6624 C 29.9052 25.6624 30.0042 25.4643 30.0042 25.3653 L 35.2525 14.7697 C 35.7476 14.3737 36.2427 14.3737 36.4408 14.7697 Z" fill="rgb(245, 202, 153)" />

  <path opacity="0.25" d="M 55.4534 6.15489 L 56.9387 8.92754 C 56.9387 8.92754 56.9387 8.92754 57.1368 8.92754 L 60.2065 9.42266 C 60.4046 9.42266 60.4046 9.62072 60.2065 9.62072 L 57.929 11.8982 C 57.929 11.8982 57.929 11.8982 57.929 12.0963 L 58.4241 15.166 C 58.4241 15.3641 58.226 15.3641 58.226 15.3641 L 55.4534 13.7797 H 55.2553 L 52.4827 15.265 C 52.2846 15.265 52.2846 15.265 52.2846 15.067 L 52.7797 11.9973 V 11.7992 L 50.5022 9.5217 V 9.42266 L 53.5719 8.92754 C 53.5719 8.92754 53.5719 8.92754 53.77 8.92754 L 55.2553 6.15489 C 55.2553 5.95684 55.2553 5.95684 55.4534 6.15489 Z" fill="rgb(245, 202, 153)" />

  <path opacity="0.25" d="M 12.1799 0.609375 L 13.4672 3.38204 C 13.4672 3.38204 13.4672 3.38204 13.6653 3.38204 L 16.636 3.87716 C 16.834 3.87716 16.834 4.07521 16.636 4.07521 L 14.5565 6.1547 C 14.5565 6.1547 14.5565 6.1547 14.5565 6.35275 L 15.0516 9.32346 C 15.0516 9.52151 14.8535 9.52151 14.8535 9.52151 L 12.2789 8.03616 C 12.2789 8.03616 12.2789 8.03616 12.0809 8.03616 L 9.40723 9.42249 C 9.20918 9.42249 9.20918 9.42249 9.20918 9.22444 L 9.7043 6.25373 C 9.7043 6.25373 9.7043 6.25373 9.7043 6.05568 L 7.42676 3.97618 V 3.87716 L 10.3975 3.38204 C 10.3975 3.38204 10.3975 3.38204 10.5955 3.38204 L 11.8828 0.609375 C 11.9818 0.609375 12.1799 0.609375 12.1799 0.609375 Z" fill="rgb(245, 202, 153)" />

  <path opacity="0.25" d="M 13.7643 49.7252 L 15.2496 52.4978 C 15.2496 52.4978 15.2496 52.4978 15.4477 52.4978 L 18.5174 52.993 C 18.7155 52.993 18.7155 53.191 18.5174 53.191 L 16.2399 55.4685 C 16.2399 55.4685 16.2399 55.4685 16.2399 55.6666 L 16.735 58.7363 C 16.735 58.9344 16.5369 58.9344 16.5369 58.9344 L 13.7643 57.449 H 13.5662 L 10.8926 58.8353 C 10.6945 58.8353 10.6945 58.8354 10.6945 58.6373 L 11.1897 55.5676 V 55.3695 L 8.91211 53.191 V 52.993 L 11.9818 52.4978 C 11.9818 52.4978 11.9818 52.4978 12.1799 52.4978 L 13.4672 49.7252 C 13.6652 49.6261 13.7643 49.6261 13.7643 49.7252 Z" fill="rgb(245, 202, 153)" />

  <path opacity="0.25" d="M 60.2063 53.2901 L 61.7907 56.3598 C 61.7907 56.3598 61.7907 56.3598 61.9888 56.3598 L 65.4546 56.8549 C 65.6526 56.8549 65.6526 57.053 65.4546 57.152 L 62.979 59.6276 C 62.979 59.6276 62.979 59.6276 62.979 59.8257 L 63.6722 63.2915 C 63.6722 63.4895 63.4741 63.4895 63.4741 63.4895 L 60.4044 61.9052 H 60.2063 L 57.1366 63.4895 C 56.9386 63.4895 56.9386 63.4895 56.9386 63.2915 L 57.6317 59.8257 V 59.6276 L 55.1561 57.152 C 54.9581 56.954 55.1561 56.954 55.1561 56.8549 L 58.622 56.3598 H 58.82 L 60.4044 53.2901 C 59.8102 53.1911 60.0083 53.1911 60.2063 53.2901 Z" fill="rgb(245, 202, 153)" />
</svg>
